#!OML:ASF X:\für Bonn\!DataBase\2005_08_11_Bastian_Final\c3d\Bastian.ASF
:FULLY-SPECIFIED
:DEGREES
77
root 22.7477 16.5884 -3.53145 1065.04 -74.8511 11.6988
lowerback 59.4236 -3.95923 14.9902
upperback 19.2505 0.14751 3.81782
thorax 1.27036 -0.589145 -2.2298
lowerneck -11.037 -6.26024 0.00985609
upperneck -9.21903 -8.8122 -0.0338472
head -1.07445 -4.63101 -0.199608
rclavicle -2.54444e-014 3.97569e-014
rhumerus 38.6607 -2.42656 -58.142
rradius 16.2521
rwrist -3.19655
rhand -24.3659 -4.15783
rfingers 7.12502
rthumb 2.124 -34.127
lclavicle -2.54444e-014 3.97569e-014
lhumerus -5.88218 -26.7847 -274.825
lradius 44.2294
lwrist -336.435
lhand -13.3942 -9.43843
lfingers 7.12502
lthumb 12.7132 20.1546
rfemur -36.8747 -10.4209 19.2699
rtibia 44.9665
rfoot 0.26703 0.964579
rtoes -2.90889
lfemur -34.2621 1.08124 -23.9079
ltibia 45.1967
lfoot -5.72009 -8.23092
ltoes -12.7946
78
root 22.7034 16.5764 -3.53335 1065.08 -74.8161 12.4051
lowerback 59.8349 -4.03636 15.1365
upperback 19.2168 0.199564 3.73799
thorax 1.24777 -0.544459 -2.37092
lowerneck -10.9962 -6.24109 -0.00578537
upperneck -9.68 -8.80319 0.0239088
head -1.22296 -4.63541 -0.167024
rclavicle 1.04958e-013 3.85642e-014
rhumerus 39.2208 -2.64316 -57.3948
rradius 16.3545
rwrist -3.48568
rhand -24.3574 -4.21975
rfingers 7.12502
rthumb 2.13214 -34.1888
lclavicle 1.04958e-013 3.85642e-014
lhumerus -6.11338 -27.003 -274.791
lradius 44.0181
lwrist -336.506
lhand -13.1221 -9.14487
lfingers 7.12502
lthumb 12.9755 20.4316
rfemur -37.8847 -10.6986 19.3101
rtibia 45.5127
rfoot 0.205122 1.2181
rtoes -1.90291
lfemur -35.0485 0.786658 -24.0309
ltibia 43.6349
lfoot -5.70018 -7.91726
ltoes -14.1372
79
root 22.6571 16.5616 -3.53468 1065.32 -74.7971 12.8868
lowerback 60.2314 -4.11515 15.2942
upperback 19.2045 0.247709 3.68283
thorax 1.25325 -0.504001 -2.48903
lowerneck -11.0155 -6.21937 -0.143489
upperneck -10.1398 -8.77347 0.176409
head -1.35279 -4.62686 -0.0885315
rclavicle 4.77083e-014 1.98785e-015
rhumerus 39.7962 -2.65905 -56.4103
rradius 16.5171
rwrist -4.09192
rhand -24.3962 -4.27413
rfingers 7.12502
rthumb 2.0947 -34.2436
lclavicle 4.77083e-014 1.98785e-015
lhumerus -6.31779 -27.1758 -274.745
lradius 43.8233
lwrist -336.488
lhand -12.8555 -8.90627
lfingers 7.12502
lthumb 13.2325 20.6537
rfemur -38.9047 -10.9975 19.4387
rtibia 46.0938
rfoot 0.131324 1.4887
rtoes -0.99192
lfemur -35.8262 0.563857 -24.0963
ltibia 42.1937
lfoot -5.62215 -7.6231
ltoes -14.8737
80
root 22.6111 16.5443 -3.5354 1065.45 -74.7828 13.4992
lowerback 60.6401 -4.17768 15.4267
upperback 19.1631 0.312817 3.61845
thorax 1.22461 -0.45661 -2.61212
lowerneck -11.0457 -6.21107 -0.256252
upperneck -10.5333 -8.76336 0.292576
head -1.46354 -4.62782 -0.0270033
rclavicle 6.67916e-014 6.71892e-014
rhumerus 40.2877 -2.68666 -55.4008
rradius 16.6913
rwrist -4.75223
rhand -24.469 -4.32497
rfingers 7.12502
rthumb 2.0244 -34.2951
lclavicle 6.67916e-014 6.71892e-014
lhumerus -6.55228 -27.416 -274.679
lradius 43.642
lwrist -336.491
lhand -12.6417 -8.77289
lfingers 7.12502
lthumb 13.4386 20.7736
rfemur -39.9631 -11.2646 19.5328
rtibia 46.7098
rfoot 0.0487705 1.74257
rtoes 0.0419737
lfemur -36.626 0.359324 -24.2042
ltibia 40.8902
lfoot -5.52653 -7.30669
ltoes -15.5133
81
root 22.565 16.5235 -3.53538 1065.72 -74.7342 13.9711
lowerback 60.9743 -4.28531 15.5973
upperback 19.1658 0.326921 3.52594
thorax 1.25098 -0.422496 -2.76708
lowerneck -11.191 -6.17675 -0.345621
upperneck -10.8844 -8.71707 0.435964
head -1.54287 -4.61199 0.0348389
rclavicle -4.45278e-014 2.78299e-015
rhumerus 40.8142 -2.66981 -54.3799
rradius 16.8911
rwrist -5.52564
rhand -24.5825 -4.4316
rfingers 7.12502
rthumb 1.91481 -34.4028
lclavicle -4.45278e-014 2.78299e-015
lhumerus -6.72535 -27.6548 -274.701
lradius 43.4679
lwrist -336.452
lhand -12.4977 -8.72049
lfingers 7.12502
lthumb 13.5774 20.8168
rfemur -41.037 -11.5708 19.6615
rtibia 47.3594
rfoot -0.0765967 1.99338
rtoes 0.982039
lfemur -37.4447 0.188773 -24.3102
ltibia 39.7445
lfoot -5.37543 -7.04956
ltoes -16.129
82
root 22.5188 16.5023 -3.53544 1065.99 -74.6855 14.4226
lowerback 61.3613 -4.39406 15.745
upperback 19.1352 0.345249 3.44217
thorax 1.23793 -0.392496 -2.90116
lowerneck -11.2748 -6.14552 -0.440349
upperneck -11.2563 -8.67788 0.533029
head -1.64132 -4.59918 0.0863785
rclavicle -1.39944e-013 2.66371e-014
rhumerus 41.2889 -2.61851 -53.3251
rradius 17.1057
rwrist -6.30218
rhand -24.7151 -4.57681
rfingers 7.12502
rthumb 1.78669 -34.5491
lclavicle -1.39944e-013 2.66371e-014
lhumerus -6.97927 -27.8726 -274.682
lradius 43.3525
lwrist -336.488
lhand -12.3867 -8.73777
lfingers 7.12502
lthumb 13.6843 20.7923
rfemur -42.0934 -11.8415 19.7856
rtibia 48.0252
rfoot -0.241747 2.21005
rtoes 1.77471
lfemur -38.2289 0.0403058 -24.4081
ltibia 38.7675
lfoot -5.14497 -6.87657
ltoes -15.9871
83
root 22.4731 16.4787 -3.53564 1066.13 -74.6457 14.9856
lowerback 61.7658 -4.49184 15.8553
upperback 19.1097 0.356135 3.34111
thorax 1.2271 -0.366154 -3.03633
lowerneck -11.4285 -6.10594 -0.511082
upperneck -11.5699 -8.62751 0.62699
head -1.7116 -4.58124 0.129627
rclavicle -9.54166e-015 -5.1684e-015
rhumerus 41.7678 -2.62207 -52.3348
rradius 17.3073
rwrist -7.03789
rhand -24.7891 -4.65905
rfingers 7.12502
rthumb 1.7153 -34.6319
lclavicle -9.54166e-015 -5.1684e-015
lhumerus -7.16664 -28.0557 -274.679
lradius 43.1895
lwrist -336.48
lhand -12.2987 -8.73373
lfingers 7.12502
lthumb 13.7692 20.7906
rfemur -43.139 -12.093 19.8831
rtibia 48.7024
rfoot -0.463144 2.42542
rtoes 2.53663
lfemur -38.9859 -0.129016 -24.5106
ltibia 37.9703
lfoot -4.81402 -6.74452
ltoes -15.6161
84
root 22.4277 16.4568 -3.53585 1066.01 -74.576 15.7557
lowerback 62.1965 -4.57495 15.8982
upperback 19.0951 0.349155 3.25139
thorax 1.2208 -0.354037 -3.12538
lowerneck -11.6164 -6.06565 -0.605319
upperneck -11.8546 -8.57438 0.701828
head -1.76754 -4.56092 0.168982
rclavicle 0 1.64991e-014
rhumerus 42.6007 -3.10058 -51.8812
rradius 16.802
rwrist -7.06646
rhand -24.8635 -4.33285
rfingers 7.12502
rthumb 1.6434 -34.3063
lclavicle 0 1.64991e-014
lhumerus -7.34323 -28.2791 -274.682
lradius 43.0306
lwrist -336.43
lhand -12.2583 -8.83725
lfingers 7.12502
lthumb 13.808 20.6845
rfemur -44.1259 -12.3668 19.9054
rtibia 49.374
rfoot -0.682521 2.65058
rtoes 3.06609
lfemur -39.6765 -0.276686 -24.6859
ltibia 37.3517
lfoot -4.44459 -6.6398
ltoes -16.1663
85
root 22.3829 16.4339 -3.53435 1065.94 -74.4939 16.5041
lowerback 62.6213 -4.69268 15.9597
upperback 19.0655 0.318368 3.13512
thorax 1.19998 -0.348031 -3.24214
lowerneck -11.8232 -6.01101 -0.653069
upperneck -12.1262 -8.5091 0.732893
head -1.82067 -4.53578 0.187097
rclavicle 8.26944e-014 9.93923e-016
rhumerus 43.4096 -3.69667 -51.6266
rradius 16.3349
rwrist -6.94804
rhand -24.8597 -4.02313
rfingers 7.12502
rthumb 1.64704 -33.9965
lclavicle 8.26944e-014 9.93923e-016
lhumerus -7.5376 -28.4878 -274.702
lradius 42.9161
lwrist -336.424
lhand -12.2181 -8.8859
lfingers 7.12502
lthumb 13.8468 20.6332
rfemur -45.1173 -12.6037 19.9117
rtibia 50.0388
rfoot -0.919262 2.82767
rtoes 3.64271
lfemur -40.4029 -0.469318 -24.8462
ltibia 36.9109
lfoot -4.08582 -6.44429
ltoes -16.8314
86
root 22.3379 16.4125 -3.5334 1065.94 -74.4543 17.132
lowerback 63.0932 -4.79836 16.0355
upperback 19.0273 0.315552 3.01714
thorax 1.17544 -0.329453 -3.37414
lowerneck -12.072 -5.97298 -0.715628
upperneck -12.353 -8.46204 0.775743
head -1.85165 -4.51909 0.208199
rclavicle 0 -1.27222e-014
rhumerus 44.1959 -4.27992 -51.3429
rradius 15.8647
rwrist -6.86694
rhand -24.8772 -3.735
rfingers 7.12502
rthumb 1.63019 -33.7085
lclavicle 0 -1.27222e-014
lhumerus -7.69228 -28.7668 -274.75
lradius 42.7996
lwrist -336.247
lhand -12.2029 -8.98986
lfingers 7.12502
lthumb 13.8614 20.5282
rfemur -46.062 -12.8008 19.9608
rtibia 50.6879
rfoot -1.17076 2.99917
rtoes 4.12481
lfemur -41.0938 -0.602782 -24.9643
ltibia 36.6269
lfoot -3.80511 -6.17676
ltoes -18.0527
87
root 22.2941 16.3893 -3.53148 1065.97 -74.3875 17.759
lowerback 63.513 -4.90418 16.0751
upperback 19.0017 0.284887 2.92088
thorax 1.1597 -0.327563 -3.46104
lowerneck -12.3515 -5.92483 -0.794551
upperneck -12.5655 -8.4037 0.771803
head -1.87505 -4.49607 0.21644
rclavicle 2.22639e-014 1.3418e-014
rhumerus 45.0188 -4.96611 -51.1979
rradius 15.4683
rwrist -6.5956
rhand -24.7511 -3.4668
rfingers 7.12502
rthumb 1.75197 -33.4393
lclavicle 2.22639e-014 1.3418e-014
lhumerus -7.81049 -28.9096 -274.78
lradius 42.663
lwrist -336.197
lhand -12.1268 -9.09565
lfingers 7.12502
lthumb 13.9348 20.4174
rfemur -47.0313 -12.9982 20.001
rtibia 51.3217
rfoot -1.40892 3.12885
rtoes 4.65813
lfemur -41.8498 -0.780129 -25.0771
ltibia 36.4977
lfoot -3.51673 -5.87327
ltoes -19.2351
88
root 22.2502 16.3656 -3.52953 1066.12 -74.3502 18.2719
lowerback 63.9222 -4.99716 16.1155
upperback 18.9564 0.272507 2.8234
thorax 1.12355 -0.31808 -3.55679
lowerneck -12.5775 -5.87337 -0.869969
upperneck -12.7808 -8.34079 0.759005
head -1.9086 -4.46989 0.223582
rclavicle -1.90833e-014 -1.44119e-014
rhumerus 45.8012 -5.55079 -50.9902
rradius 15.0684
rwrist -6.42866
rhand -24.7504 -3.24396
rfingers 7.12502
rthumb 1.75264 -33.2165
lclavicle -1.90833e-014 -1.44119e-014
lhumerus -7.96491 -29.1068 -274.813
lradius 42.6048
lwrist -336.038
lhand -12.0627 -9.09573
lfingers 7.12502
lthumb 13.9966 20.4131
rfemur -48.0049 -13.1671 20.0853
rtibia 51.9417
rfoot -1.65247 3.26941
rtoes 5.04311
lfemur -42.6445 -0.905368 -25.16
ltibia 36.4876
lfoot -3.20866 -5.55403
ltoes -19.6282
